<?xml version="1.0" encoding="utf-8"?>
<svg xmlns="http://www.w3.org/2000/svg" xmlns:svg="http://www.w3.org/2000/svg" xmlns:xlink="http://www.w3.org/1999/xlink"  xmlns:rdf="http://www.w3.org/1999/02/22-rdf-syntax-ns#" xmlns:cc="http://creativecommons.org/ns#" xmlns:dc="http://purl.org/dc/elements/1.1/"  width="5120px" height = "2880px" viewBox="0 0 5120 2880"><metadata id="license"><rdf:RDF><cc:Work rdf:about=""><dc:format>image/svg+xml</dc:format><dc:title>white hexagon glow gradient black cyan 5120x2880 #1eaacd #ffffff #20bee5 diagonal 10° 6px 80px</dc:title><dc:creator><cc:Agent><dc:title>https://xmple.com</dc:title></cc:Agent></dc:creator><dc:rights><cc:Agent><dc:title>Attribution-NonCommercial-NoDerivatives 4.0 International (CC BY-NC-ND 4.0)</dc:title></cc:Agent></dc:rights><dc:publisher><cc:Agent><dc:title>https://xmple.com</dc:title></cc:Agent></dc:publisher><dc:identifier>https://xmple.com/wallpaper/white-hexagon-glow-gradient-black-cyan-5120x2880-c4-1eaacd-ffffff-20bee5-000000-l2-6-80-a-10-f-6-image/</dc:identifier><dc:source>https://xmple.com/wallpaper/white-hexagon-glow-gradient-black-cyan-5120x2880-c4-1eaacd-ffffff-20bee5-000000-l2-6-80-a-10-f-6-image/</dc:source><dc:subject><rdf:Bag><rdf:li>white hexagon glow gradient black cyan 5120x2880 #1eaacd #ffffff #20bee5 diagonal 10° 6px 80px</rdf:li></rdf:Bag></dc:subject><dc:description>white hexagon glow gradient black cyan 5120x2880 #1eaacd #ffffff #20bee5 diagonal 10° 6px 80px</dc:description><cc:license rdf:resource="http://creativecommons.org/licenses/by-nc-nd/4.0/" /></cc:Work><cc:License rdf:about="http://creativecommons.org/licenses/by-nc-nd/4.0/"><cc:permits rdf:resource="http://creativecommons.org/ns#Reproduction" /><cc:permits rdf:resource="http://creativecommons.org/ns#Distribution" /><cc:requires rdf:resource="http://creativecommons.org/ns#Notice" /><cc:requires rdf:resource="http://creativecommons.org/ns#Attribution" /><cc:prohibits rdf:resource="http://creativecommons.org/ns#CommercialUse" /></cc:License></rdf:RDF></metadata><title id="svgtitle">white hexagon glow gradient black cyan 5120x2880 #1eaacd #ffffff #20bee5 diagonal 10° 6px 80px</title><desc>white hexagon glow gradient black cyan 5120x2880 #1eaacd #ffffff #20bee5 diagonal 10° 6px 80px</desc><style type="text/css" ><![CDATA[.x{font:20px verdana;fill:#fff;stroke:#555;stroke-width:20px;opacity:0.35;}.o{stroke:none;opacity:0.01;}]]></style><defs><radialGradient id="gr" fx="50%" fy="50%" r="70%" spreadMethod="pad">
          <stop offset="0%" stop-color="#ffffff" stop-opacity="1"/>
          <stop offset="50%" stop-color="#20bee5" stop-opacity="1" />
					<stop offset="100%" stop-color="#000000" stop-opacity="1" />
        </radialGradient><pattern id="p1" patternUnits="userSpaceOnUse" x="0" y="0" width="80" height="138.564064608" patternTransform="translate(2560,1440) rotate(350 0 0)"><path stroke="#fff" stroke-width="6" fill="none" d="M0 0V23.094010768 L40 46.188021536 L80 23.094010768V0M0 138.564064608 V115.47005384L40 92.376043072 L80 115.47005384V138.564064608M40 46.188021536v46.188021536"/></pattern><mask id="msk" x="0" y="0" width="5120" height="2880"><path fill="#000" d="M0 0H5120V2880H0z"/><path fill="url(#p1)" d="M0 0H5120V2880H0z"/></mask></defs><path fill="#1eaacd" d="M0 0H5120V2880H0z"/><path mask="url(#msk)" fill="url(#gr)" d="M0 0H5120V2880H0z"/><path class="x o" d="M5 5h2v1H6v1h1v1H5zM4 3h4v1h1v5H8v1H4V9H3V4h1v5h4V4H4zm7 1h1v2h1V4h1v2h-1v1h1v2h-1V7h-1v2h-1V7h1V6h-1zm4 0h5v5h-1V5h-1v4h-1V5h-1v4h-1zm6 0h3l-1 1h-1v3h1V5l1-1v5h-2v2h-1zm4-2h1v6h1v1h-2zm3 2h3l-1 1h-1v1h1V5l1-1v3h-2v1h2v1h-3V4zm4 4h1v1h-1zm2-4h3v1h-2v3h2v1h-3zm4 0h3v5h-3l1-1h1V5h-1v3l-1 1zm4 0h5v5h-1V5h-1v4h-1V5h-1v4h-1z"/><text x="4" y="2874" class="x o">xmple.com</text><a xlink:href="https://xmple.com"><text text-anchor="end" x="5110" y="22" class="x o">xmple.com</text></a><a xlink:href="https://xmple.com"><g transform="translate(4624,2802) scale(0.0812799936)" id="a" class="x"></g></a></svg>	