<?xml version="1.0" encoding="utf-8"?>
<svg xmlns="http://www.w3.org/2000/svg" xmlns:svg="http://www.w3.org/2000/svg" xmlns:xlink="http://www.w3.org/1999/xlink"  xmlns:rdf="http://www.w3.org/1999/02/22-rdf-syntax-ns#" xmlns:cc="http://creativecommons.org/ns#" xmlns:dc="http://purl.org/dc/elements/1.1/"  width="1440px" height = "1080px" viewBox="0 0 1440 1080"><metadata id="license"><rdf:RDF><cc:Work rdf:about=""><dc:format>image/svg+xml</dc:format><dc:title>black white glow brown hexagon gradient sienna 1440x1080 #000000 #ffffff #a0522d diagonal 30° 1px 24px</dc:title><dc:creator><cc:Agent><dc:title>https://xmple.com</dc:title></cc:Agent></dc:creator><dc:rights><cc:Agent><dc:title>Attribution-NonCommercial-NoDerivatives 4.0 International (CC BY-NC-ND 4.0)</dc:title></cc:Agent></dc:rights><dc:publisher><cc:Agent><dc:title>https://xmple.com</dc:title></cc:Agent></dc:publisher><dc:identifier>https://xmple.com/wallpaper/black-white-glow-brown-hexagon-gradient-1440x1080-c4-000000-ffffff-a0522d-000000-l2-1-24-a-30-f-6-image/</dc:identifier><dc:source>https://xmple.com/wallpaper/black-white-glow-brown-hexagon-gradient-1440x1080-c4-000000-ffffff-a0522d-000000-l2-1-24-a-30-f-6-image/</dc:source><dc:subject><rdf:Bag><rdf:li>black white glow brown hexagon gradient sienna 1440x1080 #000000 #ffffff #a0522d diagonal 30° 1px 24px</rdf:li></rdf:Bag></dc:subject><dc:description>black white glow brown hexagon gradient sienna 1440x1080 #000000 #ffffff #a0522d diagonal 30° 1px 24px</dc:description><cc:license rdf:resource="http://creativecommons.org/licenses/by-nc-nd/4.0/" /></cc:Work><cc:License rdf:about="http://creativecommons.org/licenses/by-nc-nd/4.0/"><cc:permits rdf:resource="http://creativecommons.org/ns#Reproduction" /><cc:permits rdf:resource="http://creativecommons.org/ns#Distribution" /><cc:requires rdf:resource="http://creativecommons.org/ns#Notice" /><cc:requires rdf:resource="http://creativecommons.org/ns#Attribution" /><cc:prohibits rdf:resource="http://creativecommons.org/ns#CommercialUse" /></cc:License></rdf:RDF></metadata><title id="svgtitle">black white glow brown hexagon gradient sienna 1440x1080 #000000 #ffffff #a0522d diagonal 30° 1px 24px</title><desc>black white glow brown hexagon gradient sienna 1440x1080 #000000 #ffffff #a0522d diagonal 30° 1px 24px</desc><style type="text/css" ><![CDATA[.x{font:20px verdana;fill:#fff;stroke:#555;stroke-width:20px;opacity:0.35;}.o{stroke:none;opacity:0.01;}]]></style><defs><radialGradient id="gr" fx="50%" fy="50%" r="70%" spreadMethod="pad">
          <stop offset="0%" stop-color="#ffffff" stop-opacity="1"/>
          <stop offset="50%" stop-color="#a0522d" stop-opacity="1" />
					<stop offset="100%" stop-color="#000000" stop-opacity="1" />
        </radialGradient><pattern id="p1" patternUnits="userSpaceOnUse" x="0" y="0" width="24" height="41.5692193824" patternTransform="translate(720,540) rotate(330 0 0)"><path stroke="#fff" stroke-width="1" fill="none" d="M0 0V6.9282032304 L12 13.8564064608 L24 6.9282032304V0M0 41.5692193824 V34.641016152L12 27.7128129216 L24 34.641016152V41.5692193824M12 13.8564064608v13.8564064608"/></pattern><mask id="msk" x="0" y="0" width="1440" height="1080"><path fill="#000" d="M0 0H1440V1080H0z"/><path fill="url(#p1)" d="M0 0H1440V1080H0z"/></mask></defs><path fill="#000000" d="M0 0H1440V1080H0z"/><path mask="url(#msk)" fill="url(#gr)" d="M0 0H1440V1080H0z"/><path class="x o" d="M5 5h2v1H6v1h1v1H5zM4 3h4v1h1v5H8v1H4V9H3V4h1v5h4V4H4zm7 1h1v2h1V4h1v2h-1v1h1v2h-1V7h-1v2h-1V7h1V6h-1zm4 0h5v5h-1V5h-1v4h-1V5h-1v4h-1zm6 0h3l-1 1h-1v3h1V5l1-1v5h-2v2h-1zm4-2h1v6h1v1h-2zm3 2h3l-1 1h-1v1h1V5l1-1v3h-2v1h2v1h-3V4zm4 4h1v1h-1zm2-4h3v1h-2v3h2v1h-3zm4 0h3v5h-3l1-1h1V5h-1v3l-1 1zm4 0h5v5h-1V5h-1v4h-1V5h-1v4h-1z"/><text x="4" y="1074" class="x o">xmple.com</text><a xlink:href="https://xmple.com"><text text-anchor="end" x="1430" y="22" class="x o">xmple.com</text></a><a xlink:href="https://xmple.com"><g transform="translate(1254,1051) scale(0.0304799976)" id="a" class="x"></g></a></svg>	